<?xml version="1.0" standalone="no"?><!DOCTYPE svg PUBLIC "-//W3C//DTD SVG 1.1//EN" "http://www.w3.org/Graphics/SVG/1.1/DTD/svg11.dtd"><svg t="1732588608253" class="icon" viewBox="0 0 1024 1024" version="1.1" xmlns="http://www.w3.org/2000/svg" p-id="39902" xmlns:xlink="http://www.w3.org/1999/xlink" width="200" height="200"><path d="M787.72 765.44a35.84 35.84 0 0 1-53.704 0 43.008 43.008 0 0 1-11.15-29.184c0-10.98 3.982-21.504 11.15-29.127L929.43 531 734.016 354.93a43.122 43.122 0 0 1-11.15-29.241c0-10.98 3.982-21.504 11.15-29.184a35.954 35.954 0 0 1 53.703 0l225.565 203.264c7.964 8.533 11.264 19.911 10.752 31.289a42.724 42.724 0 0 1-10.809 31.232L787.719 765.44zM406.847 904.875c-18.09-6.087-22.073-34.703-12.515-53.362L566.137 187.62s30.493-25.032 46.877-14.223c7.907 5.12 13.653 13.597 16.042 23.61a43.861 43.861 0 0 1-3.413 29.638L453.839 890.652c-9.558 18.603-24.747 21.732-46.99 14.223zM290.112 771.698a35.897 35.897 0 0 1-53.646 0L10.902 569.913A42.268 42.268 0 0 1 0.15 538.852a42.098 42.098 0 0 1 10.809-31.062l225.507-201.842c14.791-15.985 38.855-15.985 53.646 0a42.496 42.496 0 0 1 11.207 29.014c0 10.922-4.039 21.39-11.207 29.013L94.642 538.852l195.47 174.876a42.325 42.325 0 0 1 11.207 29.013 42.325 42.325 0 0 1-11.207 28.957z" p-id="39903" fill="#515151"></path></svg>